PathFileType	4	(X/Y/Z)	Patient4_TMGait_0pt5_01_right_32.trc.trc
DataRate	CameraRate	NumFrames	NumMarkers	Units	OrigDataRate	OrigDataStartFrame	OrigNumFrames
75.268817204301	75.268817204301	7	33	mm	75.268817204301	1	       141
Frame#	Time	L.ASIS			Sacral			L.Shoulder			Chest			R.Shoulder			Neck			R.ASIS			R.Thigh.Superior			R.Thigh.Lateral			R.Thigh.Inferior			R.Patella			L.Thigh.Superior			L.Thigh.Lateral			L.Thigh.Inferior			L.Patella			L.Shank.Superior			L.Shank.Lateral			L.Shank.Inferior			R.Shank.Superior			R.Shank.Lateral			R.Shank.Inferior			R.Heel			R.Midfoot.Superior			R.Midfoot.Lateral			R.Toe			L.Heel			L.Midfoot.Lateral			L.Midfoot.Superior			L.Toe			L.Elbow			L.Wrist			R.Elbow			R.Wrist			
		X1	Y1	Z1	X2	Y2	Z2	X3	Y3	Z3	X4	Y4	Z4	X5	Y5	Z5	X6	Y6	Z6	X7	Y7	Z7	X8	Y8	Z8	X9	Y9	Z9	X10	Y10	Z10	X11	Y11	Z11	X12	Y12	Z12	X13	Y13	Z13	X14	Y14	Z14	X15	Y15	Z15	X16	Y16	Z16	X17	Y17	Z17	X18	Y18	Z18	X19	Y19	Z19	X20	Y20	Z20	X21	Y21	Z21	X22	Y22	Z22	X23	Y23	Z23	X24	Y24	Z24	X25	Y25	Z25	X26	Y26	Z26	X27	Y27	Z27	X28	Y28	Z28	X29	Y29	Z29	X30	Y30	Z30	X31	Y31	Z31	X32	Y32	Z32	X33	Y33	Z33	

1	42.070000000000	884.554207824516	964.389780506350	310.010650019155	668.708515654688	999.886151051784	472.163440023024	822.424117808876	1439.680043928669	302.964988993814	928.305349979229	1368.683491815011	462.030808795578	840.831873867272	1432.953077576037	638.928778461193	824.075132817883	1496.979573643960	454.753335719688	898.682097902983	940.789528339932	586.780338092877	973.085881661894	758.583082989249	555.701631382572	925.082361704830	640.387117488916	625.841716776359	1009.678329603487	593.717322842314	543.766188342375	1018.537527046627	477.475420759366	564.756238204716	935.257244950183	751.710965734620	342.822981373949	846.477095231748	635.111050065785	285.833941710414	928.380476776414	557.193969097979	351.095939496838	927.881883608780	486.230645383543	363.836380930086	898.190093486446	413.352415440026	355.943771413541	806.651460836816	302.666706559583	302.799405307247	845.980381340916	190.852763280145	377.334097522295	932.126262909504	412.226580562567	575.013797327903	809.088273292403	391.152368835661	640.985928674183	776.554118434400	285.583339006202	593.572005926550	575.855484886742	275.247855371249	571.533574902714	715.781055172528	161.469509219150	609.827999324715	610.987179987822	196.318231096328	642.483012611713	735.961279958124	31.930835167592	631.187628071384	709.216922796010	38.082993280117	415.799898387971	783.749615146353	35.557868545572	335.291238784249	867.521788349221	95.936225421016	363.495616141742	995.975594913565	40.959017704055	335.094369605807	857.753212715158	1103.009249936019	146.336743051781	1077.207558966123	961.722172169046	129.075741194827	741.090099101915	1098.843301482600	739.916077977448	731.209120532353	840.304518880181	761.957679107919	
2	42.083285714286	884.531004545809	965.146486081188	310.984699185291	667.975953775040	1000.383295892256	471.109600464087	824.549726842391	1439.913646724558	302.188621330665	928.474207826841	1368.975969685339	462.475983295828	839.377616938955	1434.009159112794	638.306735083038	824.793870345491	1497.487264381968	453.767416947380	897.065628288037	941.788538387367	587.193493243537	975.026438240007	763.529921834139	555.052301525690	930.495014648999	644.234584614701	625.323131903750	1016.185078598596	599.952257577667	543.104006657975	1028.125655013311	483.774044307394	563.921287649150	933.043203878319	750.866881748221	343.199692396439	842.903472954110	635.349771850618	285.700219489641	923.423266280852	556.538029841051	351.324455825613	921.977139140694	485.656574909345	364.086721388321	892.238287800319	413.161860800359	355.928051067744	800.369198103792	302.743068037038	302.735550349035	839.260433495889	190.792464277297	377.318103639419	942.847555763171	416.837795961687	573.989544443217	819.367446647191	393.516852595389	638.241935104493	789.652339782117	287.093530628614	591.286277451630	589.008515272838	271.184990756331	566.455226863754	731.678746441122	162.370013504844	607.227528873378	625.932937688397	194.640381302373	638.896871273659	756.098639578896	34.252448219360	631.281243092424	702.091598073503	38.122679908078	415.707140936688	776.677888269814	35.547711616112	335.233160145239	860.486398934372	95.953629777189	363.393895518806	988.883391116087	40.888301150478	335.019905574555	863.543738490025	1104.784717296961	144.498400055631	1087.417813406934	972.010258840719	128.097702839335	733.363539575565	1102.343694777265	738.378150014117	718.501722106800	844.240583627846	760.748991354446	
3	42.096571428571	884.478058452403	965.851966768507	311.939801516088	667.233898978619	1000.921815032119	470.073328110852	826.674739015183	1440.167427534547	301.447382642087	928.659617659664	1369.273811628888	462.933334976403	837.965934168374	1435.063381248476	637.695888441559	825.510955799063	1498.000167333464	452.822213923579	895.434583244729	942.799726892093	587.618919364036	976.861750949941	768.444344128526	554.479215864259	935.713754717666	648.054427234810	624.873537572408	1022.509979311919	606.133710935056	542.567654163226	1037.460217054287	490.055958749800	563.244636711439	930.805170412908	750.032868356440	343.635916138284	839.325784451279	635.601766169679	285.585653184559	918.444466758373	555.897724227275	351.591454060737	916.053144161877	485.100891562686	364.357132419735	886.275268230409	412.983920205563	355.930080203687	794.090154194960	302.829724061228	302.683144952591	832.565503446827	190.743524669079	377.305483272642	953.412538429020	421.372038852725	573.075329770510	829.528218670242	395.591513560165	635.597723556651	802.808698210421	288.294615957527	589.068363888186	602.262925093905	266.478756233322	561.476255952216	747.843946101692	162.938147650242	604.691826344765	641.091218963537	192.362552918283	635.365345124221	776.706284039449	36.313232408844	631.337728165544	695.008770470818	38.162886619837	415.615953665271	769.648724065245	35.539566503980	335.178160719349	853.492735697510	95.973182682513	363.294201752674	981.835903525534	40.820822526518	334.947150485255	869.235040313861	1106.525641336114	142.789163002937	1097.398522410128	982.153047587560	127.236951926789	725.857268216182	1105.785769490699	736.865788721026	706.201132360733	848.112514046995	759.554907192748	
4	42.109857142857	884.369747279386	966.452195931804	312.860697199871	666.476208918963	1001.521237687386	469.080852326819	828.788890314996	1440.444526722239	300.783512679958	928.879260640020	1369.563700145058	463.416018015917	836.649624450032	1436.090631770589	637.119182424216	826.231865946605	1498.507657152676	451.966203884146	893.791610253161	943.815516887819	588.071973682295	978.471569289163	773.212041738054	554.056017111163	940.486502068327	651.753161454383	624.556041894030	1028.384697073457	612.109010933090	542.258731605918	1046.198240869319	496.227437502750	562.843970527824	928.529260683986	749.211629777927	344.175282577314	835.752382027162	635.868275503726	285.507767020731	913.446395435607	555.280836512547	351.923598539805	910.118222060264	484.573893228485	364.660482146609	880.314369571283	412.822383265420	355.964294615189	787.834072792571	302.930743103348	302.653643792851	825.927743930793	190.710003621643	377.300623069900	963.589508653316	425.709737478128	572.370983207653	839.459564004030	397.069512183861	633.197811278192	816.068160209900	288.904889863136	587.027665065799	615.812398111256	260.548314351882	556.791760330520	764.526601656805	162.902962452018	602.336181561314	656.740413569133	188.982388844558	632.034486932840	798.192445971492	37.979156740911	631.382154272170	688.012511324756	38.205770355445	415.529084913363	762.704395636299	35.535237266611	335.129518289417	846.582786316811	95.995087793787	363.199783663188	974.876690266305	40.758490358433	334.877981491152	874.714795811409	1108.178354210485	141.335365695055	1106.903029658564	991.946555542414	126.623038779266	718.831535604178	1109.064429650896	735.413843636254	694.772990728712	851.801694650734	758.399396485835	
5	42.123142857143	884.191623247481	966.906250893427	313.741994912673	665.693113904387	1002.187970063485	468.153946676282	830.885670700907	1440.739461460999	300.233381175728	929.149062193310	1369.824499671493	463.936768798983	835.474292217683	1437.060666626828	636.601380543500	826.966915442656	1498.993678585242	451.241431810366	892.139250967330	944.821070361063	588.568039173459	979.756954812731	777.716388947049	553.845587489755	944.593390928515	655.231769646476	624.418293920552	1033.568437750854	617.722543809245	542.249811989325	1054.039069081363	502.191404398252	562.800729101735	926.200485624262	748.398389869354	344.850423404376	832.187288442208	636.144061784407	285.479416309195	908.427310479575	554.686650411442	352.339409397113	904.176546990058	484.078320561277	365.003545860924	874.360870806036	412.674912300200	356.040794606047	781.606496965277	303.046390681435	302.656189517071	819.356737072169	190.690776213257	377.308091893557	973.182009012375	429.740887527289	571.956106261825	849.100392300140	397.678464104921	631.174986630983	829.507869842438	288.692822255503	585.272592468993	629.912446143908	252.897514282323	552.590866263669	781.986133982574	162.057943136994	600.287959132544	673.197386646645	184.102089615315	629.065578352361	820.945143916414	39.199932352664	631.492843675629	681.118355889114	38.253213482965	415.448012047053	755.857350385358	35.535886944926	335.089840697814	839.769093045009	96.018416861645	363.114121891341	968.018994088593	40.702226206637	334.813805859625	879.900694682678	1109.692455631997	140.237071429972	1115.748519755981	1001.224226302091	126.369381392767	712.500591404425	1112.076477052308	734.052390480694	684.596035196330	855.190414179012	757.305969319975	
6	42.136428571429	883.941970743378	967.188495270993	314.586820634348	664.874529959442	1002.912274864418	467.310115220773	832.959009703873	1441.036982250714	299.825359834583	929.481296643662	1370.027842652534	464.506120881969	834.476968911322	1437.938322222863	636.169170119866	827.729563026835	1499.436571733683	450.681248350996	890.484124175566	945.792676855551	589.120198546282	980.646707796294	781.836788878172	553.893249506003	947.858483819575	658.385783355288	624.487611980128	1037.857472796329	622.815789769207	542.574869310069	1060.736277449136	507.842329167422	563.147827137222	923.809395922470	747.582197337626	345.676611841025	828.635947863763	636.416740607380	285.507884363824	903.391266228504	554.106532212076	352.846053866160	898.238384206595	483.609329909245	365.386236492058	868.422157031786	412.533101890529	356.164369675542	775.409051685756	303.172569178912	302.696837473120	812.849670381520	190.679364091181	377.332290877879	982.027567956106	433.367330755456	571.880609930601	858.430050913441	397.209174449856	629.642410618462	843.203522739999	287.506329022019	583.903953623142	644.834022553126	243.190350414507	549.047531289235	800.431659901198	160.292408687190	598.680523317188	690.756821291247	177.489399878581	626.626100277075	845.243671413647	40.021929581606	631.794188309190	674.322506463796	38.306627133036	415.373151857226	749.099797571641	35.542115380520	335.060804796230	833.044310174270	96.041149430404	363.040838061669	961.255198696491	40.651942316579	334.755486958658	884.739171595701	1111.022230246020	139.559325773613	1123.818702662117	1009.853742511176	126.562756331760	707.024488594387	1114.723534894963	732.807142556161	675.945156985946	858.165144845399	756.297242552357	
7	42.149714285714	883.629867964373	967.287084913214	315.403819188315	664.013941209856	1003.669360062780	466.563600665671	835.001358635327	1441.313242922772	299.579347749371	929.883859626996	1370.140612325082	465.131701088524	833.685990952215	1438.685460203658	635.850349671910	828.534727718260	1499.810448479219	450.309576385121	888.839625419789	946.698782517084	589.737823170800	981.097627937846	785.449578709785	554.223119062493	950.153838265937	661.108933579249	624.771458603133	1041.088339835085	627.231218067906	543.228216495888	1066.102249141692	513.066932674888	563.867396498834	921.356003793206	746.747844734486	346.649379377648	825.107531493446	636.668040737344	285.595479290897	898.352876506070	553.526010946787	353.438735992937	892.323953098401	483.155517595805	365.802933758605	862.512523248142	412.383653085549	356.334906054658	769.245555975275	303.301483878538	302.778481095083	806.399066334155	190.665131886506	377.377107703408	989.994692928940	436.505509324665	572.160941721498	867.456461162233	395.533854363240	628.688480347564	857.203534833819	285.287076353550	583.007530767497	660.820928884017	231.292154228925	546.312383021143	819.983114269922	157.603871066825	597.640556724205	709.645382192256	169.102848661435	624.875497091461	871.206409821085	40.581402472719	632.431629291938	667.609783676475	38.366953324749	415.304250976264	742.412392769911	35.554186626914	335.043076576531	826.389736929727	96.060531278714	362.983443296159	954.565382907295	40.606666814981	334.703393774719	889.201151464556	1112.128114865634	139.330420960160	1131.057646625523	1017.731738479590	127.258525981756	702.509102545115	1116.916223927059	731.700102224386	668.992135413825	860.621439308218	755.393673448226	
